<svg fill="none" height="100%" width="100%" viewBox="0 0 763 667" xmlns:xlink="http://www.w3.org/1999/xlink" xmlns="http://www.w3.org/2000/svg"><g id="i0"><g transform="translate(486.583,452.102)"><animateMotion repeatCount="indefinite" dur="5.973s" begin="0s" calcMode="spline" keyTimes="0; 0.033542; 0.039123; 0.379899; 1" keySplines="0 0 1 1; 0 0 1 1; 0 0 1 1; 0 0 1 1" keyPoints="0; 0; 0.004; 0.415; 1" path="M0 0 L1.229 -1.229 C84.896 -64.062 -94.636 -47.933 -94.636 -47.933 C-135.502 -53.77 -205.25 84.804 0 0" fill="freeze" /><g transform="scale(-1.095,1.232) translate(-1148.868,-185.477)"><g><g transform="translate(1142.637,189.201)"><g transform="rotate(0)"><animateTransform repeatCount="indefinite" type="rotate" attributeName="transform" dur="5.973s" begin="0s" calcMode="spline" values="0; 0; -32" keyTimes="0; 1; 1" keySplines="0 0 1 1; 0 0 1 1" fill="freeze" /><g id="i1" transform="translate(5.944,-38.115)"><path d="" /></g></g></g></g><g id="i2" transform="matrix(1,0,0,1,1142.585,189.591)"><path d="" /></g><g><g id="i3" transform="translate(1149.494,188.774) translate(-14.751,2.156)"><path fill="#000000" d="M-32.646,13.731C-29.859,13.893,-10.672,12.894,-4.184,10.801C2.303,8.708,10.884,4.942,13.814,4.524C16.744,4.105,28.672,-3.011,30.138,-3.848C31.603,-4.685,33.277,-3.848,33.277,-3.848C33.277,-3.848,35.161,-6.151,33.277,-7.407C31.393,-8.663,27.417,-13.893,24.487,-13.475C21.557,-13.056,19.883,-12.219,16.953,-10.963C14.023,-9.708,-5.649,-2.074,-7.323,-0.973C-8.997,0.128,-16.322,5.36,-18.833,6.616C-21.344,7.872,-28.461,11.22,-29.717,11.22C-30.972,11.22,-35.161,13.585,-32.646,13.731Z" /></g></g><g><g transform="translate(1142.637,189.201)"><g transform="rotate(0)"><animateTransform repeatCount="indefinite" type="rotate" attributeName="transform" dur="5.973s" begin="0s" calcMode="spline" values="0; 0; -32; 0; -32; 0; -32; 0; -32; 0; -32; 0; -32; 0; -32; 0; -32; 0; -32" keyTimes="0; 0.044704; 0.139693; 0.268167; 0.351994; 0.446928; 0.541916; 0.597781; 0.69277; 0.826826; 0.927396; 1; 1; 1; 1; 1; 1; 1; 1" keySplines="0 0 1 1; 0 0 1 1; 0 0 1 1; 0 0 1 1; 0 0 1 1; 0 0 1 1; 0 0 1 1; 0 0 1 1; 0 0 1 1; 0 0 1 1; 0 0 1 1; 0 0 1 1; 0 0 1 1; 0 0 1 1; 0 0 1 1; 0 0 1 1; 0 0 1 1; 0 0 1 1" fill="freeze" /><g transform="scale(1,1)"><animateTransform repeatCount="indefinite" type="scale" attributeName="transform" dur="5.973s" begin="0s" calcMode="spline" values="1 1; 1 1; 1 -0.86; 1 1; 1 -0.86; 1 1; 1 -0.86; 1 1; 1 -0.86; 1 1; 1 -0.86; 1 1; 1 -0.86; 1 1; 1 -0.86; 1 1; 1 -0.86; 1 1; 1 -0.86" keyTimes="0; 0.044704; 0.139693; 0.268167; 0.351994; 0.446928; 0.541916; 0.597781; 0.69277; 0.826826; 0.927396; 1; 1; 1; 1; 1; 1; 1; 1" keySplines="0 0 1 1; 0 0 1 1; 0 0 1 1; 0 0 1 1; 0 0 1 1; 0 0 1 1; 0 0 1 1; 0 0 1 1; 0 0 1 1; 0 0 1 1; 0 0 1 1; 0 0 1 1; 0 0 1 1; 0 0 1 1; 0 0 1 1; 0 0 1 1; 0 0 1 1; 0 0 1 1" fill="freeze" /><g id="i4" transform="translate(5.944,-38.115)"><path fill="#000000" d="M20.275,-15.906C19.229,-9.628,13.16,13.604,10.858,18.836C8.555,24.068,4.58,32.23,3.742,33.486C2.905,34.741,-19.019,42.484,-19.647,42.484C-20.275,42.484,-15.302,23.649,-12.163,13.289C-9.024,2.929,-1.49,-19.254,0.393,-21.974C2.277,-24.695,7.718,-30.974,8.346,-32.021C8.974,-33.067,8.974,-34.741,9.811,-35.578C10.648,-36.416,11.067,-37.015,12.532,-36.625C13.997,-36.235,14.207,-32.857,14.207,-32.857C15.253,-34.531,12.532,-38.089,14.207,-39.972C15.88,-41.856,17.973,-42.485,18.601,-42.276C19.229,-42.066,18.585,-35.997,19.421,-34.323" /></g></g></g></g></g><g><g transform="translate(1142.585,189.591)"><g transform="rotate(0)"><animateTransform repeatCount="indefinite" type="rotate" attributeName="transform" dur="5.973s" begin="0s" calcMode="spline" values="0; 0; -14; 0; -14; 0; -14; 0; -14; 0; -14; 0; -14; 0; -14; 0; -14; 0; -14" keyTimes="0; 0.044704; 0.139693; 0.268167; 0.351994; 0.446928; 0.541916; 0.597781; 0.69277; 0.826826; 0.927396; 1; 1; 1; 1; 1; 1; 1; 1" keySplines="0 0 1 1; 0 0 1 1; 0 0 1 1; 0 0 1 1; 0 0 1 1; 0 0 1 1; 0 0 1 1; 0 0 1 1; 0 0 1 1; 0 0 1 1; 0 0 1 1; 0 0 1 1; 0 0 1 1; 0 0 1 1; 0 0 1 1; 0 0 1 1; 0 0 1 1; 0 0 1 1" fill="freeze" /><g transform="scale(1,1)"><animateTransform repeatCount="indefinite" type="scale" attributeName="transform" dur="5.973s" begin="0s" calcMode="spline" values="1 1; 1 1; 1 -0.94; 1 1; 1 -0.94; 1 1; 1 -0.94; 1 1; 1 -0.94; 1 1; 1 -0.94; 1 1; 1 -0.94; 1 1; 1 -0.94; 1 1; 1 -0.94; 1 1; 1 -0.94" keyTimes="0; 0.050285; 0.139693; 0.273749; 0.351993; 0.452564; 0.541915; 0.603362; 0.69277; 0.832407; 0.927396; 1; 1; 1; 1; 1; 1; 1; 1" keySplines="0 0 1 1; 0 0 1 1; 0 0 1 1; 0 0 1 1; 0 0 1 1; 0 0 1 1; 0 0 1 1; 0 0 1 1; 0 0 1 1; 0 0 1 1; 0 0 1 1; 0 0 1 1; 0 0 1 1; 0 0 1 1; 0 0 1 1; 0 0 1 1; 0 0 1 1; 0 0 1 1" fill="freeze" /><g id="i5" transform="translate(-18.791,-16.556)"><path fill="#000000" d="M11.288,16.921C0.067,16.348,-9.142,13.838,-15.21,9.652C-21.279,5.466,-26.355,0.187,-27.977,-2.905C-29.448,-5.709,-30.278,-10.021,-30.697,-12.114C-31.116,-14.206,-28.605,-16.921,-27.977,-16.505C-27.349,-16.09,-20,-5.334,-15.21,-1.65C-9.77,2.535,4.51,7.978,11.288,7.35C18.065,6.722,31.116,6.775,29.823,9.155C28.529,11.535,11.288,16.921,11.288,16.921Z" /></g></g></g></g></g></g></g></g><g id="i6"><g transform="translate(216.726,393.063)"><animateMotion repeatCount="indefinite" dur="5.973s" begin="0s" calcMode="spline" keyTimes="0; 0.033542; 0.229101; 0.446537; 0.68652; 1" keySplines="0 0 1 1; 0.333 0 0.667 1; 0.333 0 0.667 1; 0 0 1 1; 0 0 1 1" keyPoints="0; 0; 0.191; 0.417; 0.694; 1" path="M0 0 L62.149 -58.949 C63.378 -58.949 114.24 -112.974 150.64 -97.049 C209.634 -71.239 167.291 -10.827 139.578 -3.642 C106.394 4.961 -0.472 -1.768 3.155 0.045" fill="freeze" /><g transform="scale(-0.75,0.48) translate(-1019.459,-175.619)"><g><g transform="translate(1028.93,181.029)"><g transform="rotate(0)"><animateTransform repeatCount="indefinite" type="rotate" attributeName="transform" dur="5.973s" begin="0s" calcMode="spline" values="0; 0; 25; 0; 25; 0; 25; 0; 25; 0; 25; 0; 25; 0; 25; 0; 25; 0; 25; 0; 25; 0; 25; 0; 25; 0; 25; 0; 25; 0; 25; 0; 25; 0; 25; 0; 25; 0; 25; 0; 25; 25" keyTimes="0; 0.033542; 0.061502; 0.089408; 0.117368; 0.134111; 0.162016; 0.184397; 0.212302; 0.245843; 0.273748; 0.301709; 0.329614; 0.363156; 0.391061; 0.402279; 0.430184; 0.446927; 0.474888; 0.491631; 0.519592; 0.536335; 0.564295; 0.569876; 0.586619; 0.5922; 0.608943; 0.614524; 0.631324; 0.642485; 0.659229; 0.676027; 0.69277; 0.731893; 0.759798; 0.79334; 0.826826; 0.849206; 0.882692; 0.893854; 0.927396; 1" keySplines="0 0 1 1; 0 0 1 1; 0 0 1 1; 0 0 1 1; 0 0 1 1; 0 0 1 1; 0 0 1 1; 0 0 1 1; 0 0 1 1; 0 0 1 1; 0 0 1 1; 0 0 1 1; 0 0 1 1; 0 0 1 1; 0 0 1 1; 0 0 1 1; 0 0 1 1; 0 0 1 1; 0 0 1 1; 0 0 1 1; 0 0 1 1; 0 0 1 1; 0 0 1 1; 0 0 1 1; 0 0 1 1; 0 0 1 1; 0 0 1 1; 0 0 1 1; 0 0 1 1; 0 0 1 1; 0 0 1 1; 0 0 1 1; 0 0 1 1; 0 0 1 1; 0 0 1 1; 0 0 1 1; 0 0 1 1; 0 0 1 1; 0 0 1 1; 0 0 1 1; 0 0 1 1" fill="freeze" /><g transform="scale(1,1)"><animateTransform repeatCount="indefinite" type="scale" attributeName="transform" dur="5.973s" begin="0s" calcMode="spline" values="1 1; 1 1; 1 -0.37; 1 1; 1 -0.37; 1 1; 1 -0.37; 1 1; 1 -0.37; 1 1; 1 -0.37; 1 1; 1 -0.37; 1 1; 1 -0.37; 1 1; 1 -0.37; 1 1; 1 -0.37; 1 1; 1 -0.37; 1 1; 1 -0.37; 1 1; 1 -0.37; 1 1; 1 -0.37; 1 1; 1 -0.37; 1 1; 1 -0.37; 1 1; 1 -0.37; 1 1; 1 -0.37; 1 1; 1 -0.37; 1 1; 1 -0.37; 1 1; 1 -0.37; 1 -0.37" keyTimes="0; 0.033542; 0.061502; 0.089408; 0.117368; 0.134111; 0.162016; 0.184397; 0.212302; 0.245843; 0.273748; 0.301709; 0.329614; 0.363156; 0.391061; 0.402279; 0.430184; 0.446927; 0.474888; 0.491631; 0.519592; 0.536335; 0.564295; 0.569876; 0.586619; 0.5922; 0.608943; 0.614524; 0.631324; 0.642485; 0.659229; 0.676027; 0.69277; 0.731893; 0.759798; 0.79334; 0.826826; 0.849206; 0.882692; 0.893854; 0.927396; 1" keySplines="0 0 1 1; 0 0 1 1; 0 0 1 1; 0 0 1 1; 0 0 1 1; 0 0 1 1; 0 0 1 1; 0 0 1 1; 0 0 1 1; 0 0 1 1; 0 0 1 1; 0 0 1 1; 0 0 1 1; 0 0 1 1; 0 0 1 1; 0 0 1 1; 0 0 1 1; 0 0 1 1; 0 0 1 1; 0 0 1 1; 0 0 1 1; 0 0 1 1; 0 0 1 1; 0 0 1 1; 0 0 1 1; 0 0 1 1; 0 0 1 1; 0 0 1 1; 0 0 1 1; 0 0 1 1; 0 0 1 1; 0 0 1 1; 0 0 1 1; 0 0 1 1; 0 0 1 1; 0 0 1 1; 0 0 1 1; 0 0 1 1; 0 0 1 1; 0 0 1 1; 0 0 1 1" fill="freeze" /><g id="i7" transform="translate(-0.338,-38.939)"><path fill="#000000" d="M14.552,30.524C15.565,30.775,15.818,24.999,15.058,21.231C14.299,17.462,10.249,2.139,7.465,-2.885C4.682,-7.909,-6.529,-30.266,-10.921,-32.527C-15.313,-34.788,-15.819,-28.759,-14.806,-26.498C-13.795,-24.237,-8.226,1.253,-9.239,7.096C-9.745,10.018,-10.758,12.546,-11.643,14.721C-12.529,16.896,-13.892,18.843,-13.288,20.226C-9.686,28.466,0.126,30.622,7.886,33.531C11.239,34.788,14.356,30.475,14.552,30.524Z" /></g></g></g></g></g><g><g transform="translate(1022.399,172.272)"><g transform="rotate(0)"><animateTransform repeatCount="indefinite" type="rotate" attributeName="transform" dur="5.973s" begin="0s" calcMode="spline" values="0; 0; 24; 0; 24; 0; 24; 0; 24; 0; 24; 0; 24; 0; 24; 0; 24; 0; 24; 0; 24; 0; 24; 0; 24; 0; 24; 0; 24; 0; 24; 0; 24; 0; 24; 0; 24; 0; 24; 0; 24; 24" keyTimes="0; 0.033542; 0.061502; 0.089408; 0.117368; 0.134111; 0.162016; 0.184397; 0.212302; 0.245843; 0.273748; 0.301709; 0.329614; 0.363156; 0.391061; 0.402279; 0.430184; 0.446927; 0.474888; 0.491631; 0.519592; 0.536335; 0.564295; 0.569876; 0.586619; 0.5922; 0.608943; 0.614524; 0.631324; 0.642485; 0.659229; 0.676027; 0.69277; 0.731893; 0.759798; 0.79334; 0.826826; 0.849206; 0.882692; 0.893854; 0.927396; 1" keySplines="0 0 1 1; 0 0 1 1; 0 0 1 1; 0 0 1 1; 0 0 1 1; 0 0 1 1; 0 0 1 1; 0 0 1 1; 0 0 1 1; 0 0 1 1; 0 0 1 1; 0 0 1 1; 0 0 1 1; 0 0 1 1; 0 0 1 1; 0 0 1 1; 0 0 1 1; 0 0 1 1; 0 0 1 1; 0 0 1 1; 0 0 1 1; 0 0 1 1; 0 0 1 1; 0 0 1 1; 0 0 1 1; 0 0 1 1; 0 0 1 1; 0 0 1 1; 0 0 1 1; 0 0 1 1; 0 0 1 1; 0 0 1 1; 0 0 1 1; 0 0 1 1; 0 0 1 1; 0 0 1 1; 0 0 1 1; 0 0 1 1; 0 0 1 1; 0 0 1 1; 0 0 1 1" fill="freeze" /><g transform="scale(1,1)"><animateTransform repeatCount="indefinite" type="scale" attributeName="transform" dur="5.973s" begin="0s" calcMode="spline" values="1 1; 1 1; 1 -0.78; 1 1; 1 -0.78; 1 1; 1 -0.78; 1 1; 1 -0.78; 1 1; 1 -0.78; 1 1; 1 -0.78; 1 1; 1 -0.78; 1 1; 1 -0.78; 1 1; 1 -0.78; 1 1; 1 -0.78; 1 1; 1 -0.78; 1 1; 1 -0.78; 1 1; 1 -0.78; 1 1; 1 -0.78; 1 1; 1 -0.78; 1 1; 1 -0.78; 1 1; 1 -0.78; 1 1; 1 -0.78; 1 1; 1 -0.78; 1 1; 1 -0.78; 1 -0.78" keyTimes="0; 0.033542; 0.061502; 0.089408; 0.117368; 0.134111; 0.162016; 0.184397; 0.212302; 0.245843; 0.273748; 0.301709; 0.329614; 0.363156; 0.391061; 0.402279; 0.430184; 0.446927; 0.474888; 0.491631; 0.519592; 0.536335; 0.564295; 0.569876; 0.586619; 0.5922; 0.608943; 0.614524; 0.631324; 0.642485; 0.659229; 0.676027; 0.69277; 0.731893; 0.759798; 0.79334; 0.826826; 0.849206; 0.882692; 0.893854; 0.927396; 1" keySplines="0 0 1 1; 0 0 1 1; 0 0 1 1; 0 0 1 1; 0 0 1 1; 0 0 1 1; 0 0 1 1; 0 0 1 1; 0 0 1 1; 0 0 1 1; 0 0 1 1; 0 0 1 1; 0 0 1 1; 0 0 1 1; 0 0 1 1; 0 0 1 1; 0 0 1 1; 0 0 1 1; 0 0 1 1; 0 0 1 1; 0 0 1 1; 0 0 1 1; 0 0 1 1; 0 0 1 1; 0 0 1 1; 0 0 1 1; 0 0 1 1; 0 0 1 1; 0 0 1 1; 0 0 1 1; 0 0 1 1; 0 0 1 1; 0 0 1 1; 0 0 1 1; 0 0 1 1; 0 0 1 1; 0 0 1 1; 0 0 1 1; 0 0 1 1; 0 0 1 1; 0 0 1 1" fill="freeze" /><g id="i1" transform="translate(-7.476,-13.924)"><path fill="#000000" d="M28.347,16.957C22.02,14.932,4.261,4.783,0,3.29C-2.866,2.286,-32.142,-15.945,-33.408,-17.463C-34.674,-18.982,-34.167,-14.426,-33.408,-12.908C-32.648,-11.389,-24.549,-3.291,-21.765,-1.266C-18.981,0.759,-9.617,8.058,-7.086,9.324C-4.555,10.589,34.674,18.981,28.347,16.957Z" /></g></g></g></g></g><g id="i2" transform="matrix(1,0,0,1,1017.562,175.014)"><path fill="#000000" d="M25.562,-0.127C31.889,1.898,31.383,6.455,32.902,7.214C34.42,7.973,36.192,12.782,34.926,11.77C33.662,10.757,30.624,11.516,26.069,12.781C21.513,14.046,13.92,13.034,7.339,12.781C0.759,12.528,-4.555,6.455,-8.099,4.177C-11.642,1.899,-18.982,-0.126,-23.791,-0.885C-28.599,-1.645,-33.661,-2.91,-36.192,-5.44C-36.192,-5.44,-33.915,-6.707,-32.902,-5.695C-31.889,-4.683,-22.019,-5.695,-22.778,-6.201C-23.538,-6.707,-29.673,-10.736,-31.698,-11.242C-33.722,-11.749,-31.889,-14.047,-27.627,-12.802C-24.956,-12.021,-20.248,-11.009,-19.488,-9.743C-18.729,-8.478,-10.967,-9.676,-7.819,-9.359C-4.344,-9.009,19.235,-2.151,25.562,-0.127Z" /></g></g></g></g><g id="i8"><g transform="translate(353.847,422.605)"><animateTransform repeatCount="indefinite" type="translate" attributeName="transform" dur="5.973s" begin="0s" calcMode="spline" values="353.847 422.605; 353.847 422.605; 415.299 368.528; 374.74 305.847; 309.601 300.93; 353.847 425.063" keyTimes="0; 0.033542; 0.279106; 0.530251; 0.636905; 1" keySplines="0 0 1 1; 0 0 1 1; 0 0 1 1; 0 0 1 1; 0 0 1 1" fill="freeze" /><g transform="scale(0.48,0.48) translate(-781.552,-292.5)"><g><g transform="translate(765.911,297.321)"><g transform="rotate(0)"><animateTransform repeatCount="indefinite" type="rotate" attributeName="transform" dur="5.973s" begin="0s" calcMode="spline" values="0; 0; 7; 7" keyTimes="0; 0.620161; 0.664809; 1" keySplines="0 0 1 1; 0 0 1 1; 0 0 1 1" fill="freeze" /><g id="i9" transform="translate(27.922,-0.344)"><path fill="#000000" d="M-43.273,-5.172C-41.204,-7.586,-40.17,-7.93,-37.067,-7.93C-33.964,-7.93,-29.137,-9.999,-27.757,-9.999C-26.378,-9.999,-0.172,-9.654,11.551,-7.586C23.274,-5.517,24.998,-5.861,26.723,-7.586C28.447,-9.31,37.067,-2.414,40.17,-3.448C43.273,-4.483,28.791,1.035,22.93,2.414C17.068,3.793,-21.896,9.999,-29.826,6.552C-37.757,3.103,-38.446,-1.379,-39.136,-2.758C-39.826,-4.137,-43.273,-5.172,-43.273,-5.172Z" /></g></g></g></g><g><g transform="translate(783.194,292.283)"><g transform="rotate(19)"><animateTransform repeatCount="indefinite" type="rotate" attributeName="transform" dur="5.973s" begin="0s" calcMode="spline" values="19; 19; 0; 19; 0; 19; 0; 19; 0; 19; 0; 19; 0; 19; 0; 19; 0; 19; 0; 19; 0; 19; 0; 19; 0; 19; 0; 19; 0; 19; 0; 19; 0; 19; 0; 19; 0" keyTimes="0; 0.050285; 0.106151; 0.145273; 0.184396; 0.217883; 0.257005; 0.273748; 0.312871; 0.335196; 0.374318; 0.413441; 0.452564; 0.491631; 0.530754; 0.553077; 0.5922; 0.614525; 0.653647; 0.676027; 0.715094; 0.737474; 0.776541; 0.798921; 0.837988; 0.860368; 0.89949; 0.927396; 0.966518; 0.988843; 1; 1; 1; 1; 1; 1; 1" keySplines="0 0 1 1; 0.333 0 0.667 1; 0.333 0 0.667 1; 0.333 0 0.667 1; 0.333 0 0.667 1; 0.333 0 0.667 1; 0.333 0 0.667 1; 0.333 0 0.667 1; 0.333 0 0.667 1; 0.333 0 0.667 1; 0.333 0 0.667 1; 0.333 0 0.667 1; 0.333 0 0.667 1; 0.333 0 0.667 1; 0.333 0 0.667 1; 0.333 0 0.667 1; 0.333 0 0.667 1; 0.333 0 0.667 1; 0.333 0 0.667 1; 0.333 0 0.667 1; 0.333 0 0.667 1; 0.333 0 0.667 1; 0.333 0 0.667 1; 0.333 0 0.667 1; 0.333 0 0.667 1; 0.333 0 0.667 1; 0.333 0 0.667 1; 0.333 0 0.667 1; 0.333 0 0.667 1; 0.333 0 0.667 1; 0.333 0 0.667 1; 0.333 0 0.667 1; 0.333 0 0.667 1; 0.333 0 0.667 1; 0.333 0 0.667 1; 0.333 0 0.667 1" fill="freeze" /><g transform="scale(1,-1.07)"><animateTransform repeatCount="indefinite" type="scale" attributeName="transform" dur="5.973s" begin="0s" calcMode="spline" values="1 -1.07; 1 -1.07; 1 1; 1 -1.07; 1 1; 1 -1.07; 1 1; 1 -1.07; 1 1; 1 -1.07; 1 1; 1 -1.07; 1 1; 1 -1.07; 1 1; 1 -1.07; 1 1; 1 -1.07; 1 1; 1 -1.07; 1 1; 1 -1.07; 1 1; 1 -1.07; 1 1; 1 -1.07; 1 1; 1 -1.07; 1 1; 1 -1.07; 1 1; 1 -1.07; 1 1; 1 -1.07; 1 1; 1 -1.07; 1 1" keyTimes="0; 0.050285; 0.106151; 0.145273; 0.184396; 0.217883; 0.257005; 0.273748; 0.312871; 0.335196; 0.374318; 0.413441; 0.452564; 0.491631; 0.530754; 0.553077; 0.5922; 0.614525; 0.653647; 0.676027; 0.715094; 0.737474; 0.776541; 0.798921; 0.837988; 0.860368; 0.89949; 0.927396; 0.966518; 0.988843; 1; 1; 1; 1; 1; 1; 1" keySplines="0 0 1 1; 0.333 0 0.667 1; 0.333 0 0.667 1; 0.333 0 0.667 1; 0.333 0 0.667 1; 0.333 0 0.667 1; 0.333 0 0.667 1; 0.333 0 0.667 1; 0.333 0 0.667 1; 0.333 0 0.667 1; 0.333 0 0.667 1; 0.333 0 0.667 1; 0.333 0 0.667 1; 0.333 0 0.667 1; 0.333 0 0.667 1; 0.333 0 0.667 1; 0.333 0 0.667 1; 0.333 0 0.667 1; 0.333 0 0.667 1; 0.333 0 0.667 1; 0.333 0 0.667 1; 0.333 0 0.667 1; 0.333 0 0.667 1; 0.333 0 0.667 1; 0.333 0 0.667 1; 0.333 0 0.667 1; 0.333 0 0.667 1; 0.333 0 0.667 1; 0.333 0 0.667 1; 0.333 0 0.667 1; 0.333 0 0.667 1; 0.333 0 0.667 1; 0.333 0 0.667 1; 0.333 0 0.667 1; 0.333 0 0.667 1; 0.333 0 0.667 1" fill="freeze" /><g id="i10" transform="translate(-1.839,-17.401)"><path fill="#000000" d="M12.651,-15.835C12.651,-15.835,11.271,-18.249,5.409,-15.835C-0.453,-13.421,-9.763,1.061,-11.831,4.164C-13.9,7.267,-16.659,15.199,-14.245,16.578C-11.831,17.958,5.624,18.248,11.141,15.665C16.658,13.082,16.109,3.364,14.386,0.95C12.662,-1.463,10.199,-6.527,11.141,-8.359C13.353,-12.658,15.298,-14.77,12.651,-15.835Z" /></g></g></g></g></g><g><g transform="translate(782.394,293.849)"><g transform="rotate(10)"><animateTransform repeatCount="indefinite" type="rotate" attributeName="transform" dur="5.973s" begin="0s" calcMode="spline" values="10; 10; 0; 10; 0; 10; 0; 10; 0; 10; 0; 10; 0; 10; 0; 10; 0; 10; 0; 10; 0; 10; 0; 10; 0; 10; 0; 10; 0; 10; 0; 10; 0; 10; 0; 10; 0" keyTimes="0; 0.050285; 0.106151; 0.145273; 0.184396; 0.217883; 0.257005; 0.273748; 0.312871; 0.335196; 0.374318; 0.413441; 0.452564; 0.491631; 0.530754; 0.553077; 0.5922; 0.614525; 0.653647; 0.676027; 0.715094; 0.737474; 0.776541; 0.798921; 0.837988; 0.860368; 0.89949; 0.927396; 0.966518; 0.988843; 1; 1; 1; 1; 1; 1; 1" keySplines="0 0 1 1; 0.333 0 0.667 1; 0.333 0 0.667 1; 0.333 0 0.667 1; 0.333 0 0.667 1; 0.333 0 0.667 1; 0.333 0 0.667 1; 0.333 0 0.667 1; 0.333 0 0.667 1; 0.333 0 0.667 1; 0.333 0 0.667 1; 0.333 0 0.667 1; 0.333 0 0.667 1; 0.333 0 0.667 1; 0.333 0 0.667 1; 0.333 0 0.667 1; 0.333 0 0.667 1; 0.333 0 0.667 1; 0.333 0 0.667 1; 0.333 0 0.667 1; 0.333 0 0.667 1; 0.333 0 0.667 1; 0.333 0 0.667 1; 0.333 0 0.667 1; 0.333 0 0.667 1; 0.333 0 0.667 1; 0.333 0 0.667 1; 0.333 0 0.667 1; 0.333 0 0.667 1; 0.333 0 0.667 1; 0.333 0 0.667 1; 0.333 0 0.667 1; 0.333 0 0.667 1; 0.333 0 0.667 1; 0.333 0 0.667 1; 0.333 0 0.667 1" fill="freeze" /><g transform="scale(1,-0.61)"><animateTransform repeatCount="indefinite" type="scale" attributeName="transform" dur="5.973s" begin="0s" calcMode="spline" values="1 -0.61; 1 -0.61; 1 1; 1 -0.61; 1 1; 1 -0.61; 1 1; 1 -0.61; 1 1; 1 -0.61; 1 1; 1 -0.61; 1 1; 1 -0.61; 1 1; 1 -0.61; 1 1; 1 -0.61; 1 1; 1 -0.61; 1 1; 1 -0.61; 1 1; 1 -0.61; 1 1; 1 -0.61; 1 1; 1 -0.61; 1 1; 1 -0.61; 1 1; 1 -0.61; 1 1; 1 -0.61; 1 1; 1 -0.61; 1 1" keyTimes="0; 0.050285; 0.106151; 0.145273; 0.184396; 0.217883; 0.257005; 0.273748; 0.312871; 0.335196; 0.374318; 0.413441; 0.452564; 0.491631; 0.530754; 0.553077; 0.5922; 0.614525; 0.653647; 0.676027; 0.715094; 0.737474; 0.776541; 0.798921; 0.837988; 0.860368; 0.89949; 0.927396; 0.966518; 0.988843; 1; 1; 1; 1; 1; 1; 1" keySplines="0 0 1 1; 0.333 0 0.667 1; 0.333 0 0.667 1; 0.333 0 0.667 1; 0.333 0 0.667 1; 0.333 0 0.667 1; 0.333 0 0.667 1; 0.333 0 0.667 1; 0.333 0 0.667 1; 0.333 0 0.667 1; 0.333 0 0.667 1; 0.333 0 0.667 1; 0.333 0 0.667 1; 0.333 0 0.667 1; 0.333 0 0.667 1; 0.333 0 0.667 1; 0.333 0 0.667 1; 0.333 0 0.667 1; 0.333 0 0.667 1; 0.333 0 0.667 1; 0.333 0 0.667 1; 0.333 0 0.667 1; 0.333 0 0.667 1; 0.333 0 0.667 1; 0.333 0 0.667 1; 0.333 0 0.667 1; 0.333 0 0.667 1; 0.333 0 0.667 1; 0.333 0 0.667 1; 0.333 0 0.667 1; 0.333 0 0.667 1; 0.333 0 0.667 1; 0.333 0 0.667 1; 0.333 0 0.667 1; 0.333 0 0.667 1; 0.333 0 0.667 1" fill="freeze" /><g id="i11" transform="translate(18.167,-20.371)"><path fill="#000000" d="M25.913,-21.309C25.913,-21.309,23.558,-21.736,19.596,-20.237C15.634,-18.738,-28.803,12.206,-28.482,14.669C-28.161,17.131,-16.275,21.737,-9.529,21.63C-2.784,21.523,3.543,17.907,4.823,15.914C6.103,13.92,7.281,9.851,9.422,7.924C11.564,5.997,20.023,-5.676,21.094,-9.102C22.164,-12.529,24.521,-15.741,25.27,-16.169C26.02,-16.598,28.804,-19.917,25.913,-21.309Z" /></g></g></g></g></g></g></g></g><g id="i12"><g transform="translate(437.421,327.969)"><animateMotion repeatCount="indefinite" dur="5.973s" begin="0s" calcMode="spline" keyTimes="0; 0.033542; 0.541916; 0.786978; 0.814883; 1" keySplines="0 0 1 1; 0 0 1 1; 0 0 1 1; 0 0 1 1; 0 0 1 1" keyPoints="0; 0; 0.407; 0.71; 0.759; 1" path="M0 0 C0 0 131.507 -74.971 61.452 -94.636 C16.184 -113.586 -11.243 -96.789 -34.082 -69.462 C-37.907 -64.886 -40.572 -58.884 -41.787 -54.078 C-42.311 -52.008 -50.391 14.748 0 1.229" fill="freeze" /><g transform="scale(-0.48,0.48) translate(-1168.414,-360.312)"><g id="i13" transform="matrix(1,0,0,1,1140.29,342.016)"><path d="" /></g><g id="i14"><path d="" /></g><g><g transform="translate(1189.463,360.121)"><g transform="scale(1.09,1.09)"><animateTransform repeatCount="indefinite" type="scale" attributeName="transform" dur="5.973s" begin="0s" calcMode="spline" values="1.09 1.09; 1.09 1.09; 1 1; 1 1" keyTimes="0; 0.033542; 0.245843; 1" keySplines="0 0 1 1; 0 0 1 1; 0 0 1 1" fill="freeze" /><g id="i15" transform="translate(-36.338,17.819)"><path fill="#000000" d="M-39.899,22.118C-36.188,22.582,-39.853,23.97,-24.59,14.92C-8.553,5.41,6.58,0.751,8.125,0.622C9.671,0.493,31.761,-7.75,37.493,-14.576C38.745,-16.067,39.9,-15.975,39.505,-17.043C38.094,-20.863,28.796,-23.97,23.13,-22.948C17.895,-22.004,-5.508,-11.283,-5.508,-9.386C-5.508,-7.489,-15.469,-0.611,-17.604,0.337C-19.738,1.285,-20.449,3.183,-20.449,5.555C-20.449,7.926,-24.955,11.957,-27.8,12.669C-30.646,13.38,-37.046,16.5,-38.473,19.309C-38.473,19.309,-39.899,22.118,-39.899,22.118Z" /></g></g></g></g><g><g transform="translate(1163.286,361.629)"><g transform="rotate(-30.864)"><animateTransform repeatCount="indefinite" type="rotate" attributeName="transform" dur="5.973s" begin="0s" calcMode="spline" values="0; -36; 0; -36; 0; -36; 0; -36; 0; -36; 0; -36; 0; -36; 0; -36; 0; -36; 0; -36; 0; -36; 0; -36; 0; -36; 0; -36; 0; -36; 0; -36; 0; -36; 0; -36; 0; -36; 0; -36; 0; -36; 0; -36; 0; -36; 0" keyTimes="0; 0.039123; 0.072665; 0.089408; 0.12295; 0.156436; 0.201139; 0.234681; 0.268167; 0.296128; 0.329614; 0.368737; 0.402279; 0.435765; 0.469307; 0.50843; 0.541916; 0.558659; 0.592201; 0.614525; 0.648066; 0.687189; 0.720675; 0.743055; 0.776541; 0.810083; 0.843625; 0.860368; 0.893854; 0.910653; 0.944139; 0.960938; 0.994424; 1; 1; 1; 1; 1; 1; 1; 1; 1; 1; 1; 1; 1; 1" keySplines="0 0 1 1; 0 0 1 1; 0 0 1 1; 0 0 1 1; 0 0 1 1; 0 0 1 1; 0 0 1 1; 0 0 1 1; 0 0 1 1; 0 0 1 1; 0 0 1 1; 0 0 1 1; 0 0 1 1; 0 0 1 1; 0 0 1 1; 0 0 1 1; 0 0 1 1; 0 0 1 1; 0 0 1 1; 0 0 1 1; 0 0 1 1; 0 0 1 1; 0 0 1 1; 0 0 1 1; 0 0 1 1; 0 0 1 1; 0 0 1 1; 0 0 1 1; 0 0 1 1; 0 0 1 1; 0 0 1 1; 0 0 1 1; 0 0 1 1; 0 0 1 1; 0 0 1 1; 0 0 1 1; 0 0 1 1; 0 0 1 1; 0 0 1 1; 0 0 1 1; 0 0 1 1; 0 0 1 1; 0 0 1 1; 0 0 1 1; 0 0 1 1; 0 0 1 1" fill="freeze" /><g transform="scale(1,-0.526)"><animateTransform repeatCount="indefinite" type="scale" attributeName="transform" dur="5.973s" begin="0s" calcMode="spline" values="1 1; 1 -0.78; 1 1; 1 -0.78; 1 1; 1 -0.78; 1 1; 1 -0.78; 1 1; 1 -0.78; 1 1; 1 -0.78; 1 1; 1 -0.78; 1 1; 1 -0.78; 1 1; 1 -0.78; 1 1; 1 -0.78; 1 1; 1 -0.78; 1 1; 1 -0.78; 1 1; 1 -0.78; 1 1; 1 -0.78; 1 1; 1 -0.78; 1 1; 1 -0.78; 1 1; 1 -0.78; 1 1; 1 -0.78; 1 1; 1 -0.78; 1 1; 1 -0.78; 1 1; 1 -0.78; 1 1; 1 -0.78; 1 1; 1 -0.78; 1 1" keyTimes="0; 0.039123; 0.072665; 0.089408; 0.12295; 0.156436; 0.201139; 0.234681; 0.268167; 0.296128; 0.329614; 0.368737; 0.402279; 0.435765; 0.469307; 0.50843; 0.541916; 0.558659; 0.592201; 0.614525; 0.648066; 0.687189; 0.720675; 0.743055; 0.776541; 0.810083; 0.843625; 0.860368; 0.893854; 0.910653; 0.944139; 0.960938; 0.994424; 1; 1; 1; 1; 1; 1; 1; 1; 1; 1; 1; 1; 1; 1" keySplines="0 0 1 1; 0 0 1 1; 0 0 1 1; 0 0 1 1; 0 0 1 1; 0 0 1 1; 0 0 1 1; 0 0 1 1; 0 0 1 1; 0 0 1 1; 0 0 1 1; 0 0 1 1; 0 0 1 1; 0 0 1 1; 0 0 1 1; 0 0 1 1; 0 0 1 1; 0 0 1 1; 0 0 1 1; 0 0 1 1; 0 0 1 1; 0 0 1 1; 0 0 1 1; 0 0 1 1; 0 0 1 1; 0 0 1 1; 0 0 1 1; 0 0 1 1; 0 0 1 1; 0 0 1 1; 0 0 1 1; 0 0 1 1; 0 0 1 1; 0 0 1 1; 0 0 1 1; 0 0 1 1; 0 0 1 1; 0 0 1 1; 0 0 1 1; 0 0 1 1; 0 0 1 1; 0 0 1 1; 0 0 1 1; 0 0 1 1; 0 0 1 1; 0 0 1 1" fill="freeze" /><g id="i16" transform="translate(-22.996,-19.613)"><path fill="#000000" d="M21.88,21.764C26.372,18.913,33.682,13.47,21.168,3.373C10.737,-5.044,1.182,-7.009,-2.438,-8.909C-5.408,-10.467,-21.349,-21.605,-28.467,-23.976C-30.086,-24.515,-31.783,-25.872,-32.731,-25.398C-33.681,-24.923,-32.02,-18.522,-29.175,-16.387C-26.328,-14.253,-20.399,-7.376,-19.214,-2.869C-18.028,1.637,-4.511,8.306,-3.325,11.019C-2.139,13.731,-3.799,18.237,0.47,21.083C4.738,23.929,6.277,25.285,8.166,25.471C12.248,25.872,17.05,24.83,21.88,21.764Z" /></g></g></g></g></g><g><g transform="translate(1165.566,363.856)"><g transform="rotate(-33)"><animateTransform repeatCount="indefinite" type="rotate" attributeName="transform" dur="5.973s" begin="0s" calcMode="spline" values="-33; -33; 0; -33; 0; -33; 0; -33; 0; -33; 0; -33; 0; -33; 0; -33; 0; -33; 0; -33; 0; -33; 0; -33; 0; -33; 0; -33; 0; -33; 0; -33; 0; -33; 0; -33; 0; -33; 0; -33; 0; -33; 0; -33; 0; -33; 0" keyTimes="0; 0.039123; 0.072665; 0.089408; 0.12295; 0.156436; 0.201139; 0.234681; 0.268167; 0.296128; 0.329614; 0.368736; 0.40228; 0.435766; 0.469307; 0.50843; 0.541916; 0.558658; 0.592201; 0.614524; 0.648066; 0.68719; 0.720676; 0.743055; 0.776541; 0.810082; 0.843625; 0.860368; 0.893854; 0.910653; 0.944139; 0.960937; 0.994423; 1; 1; 1; 1; 1; 1; 1; 1; 1; 1; 1; 1; 1; 1" keySplines="0 0 1 1; 0 0 1 1; 0 0 1 1; 0 0 1 1; 0 0 1 1; 0 0 1 1; 0 0 1 1; 0 0 1 1; 0 0 1 1; 0 0 1 1; 0 0 1 1; 0 0 1 1; 0 0 1 1; 0 0 1 1; 0 0 1 1; 0 0 1 1; 0 0 1 1; 0 0 1 1; 0 0 1 1; 0 0 1 1; 0 0 1 1; 0 0 1 1; 0 0 1 1; 0 0 1 1; 0 0 1 1; 0 0 1 1; 0 0 1 1; 0 0 1 1; 0 0 1 1; 0 0 1 1; 0 0 1 1; 0 0 1 1; 0 0 1 1; 0 0 1 1; 0 0 1 1; 0 0 1 1; 0 0 1 1; 0 0 1 1; 0 0 1 1; 0 0 1 1; 0 0 1 1; 0 0 1 1; 0 0 1 1; 0 0 1 1; 0 0 1 1; 0 0 1 1" fill="freeze" /><g transform="scale(1,-0.79)"><animateTransform repeatCount="indefinite" type="scale" attributeName="transform" dur="5.973s" begin="0s" calcMode="spline" values="1 -0.79; 1 -0.79; 1 1; 1 -0.79; 1 1; 1 -0.79; 1 1; 1 -0.79; 1 1; 1 -0.79; 1 1; 1 -0.79; 1 1; 1 -0.79; 1 1; 1 -0.79; 1 1; 1 -0.79; 1 1; 1 -0.79; 1 1; 1 -0.79; 1 1; 1 -0.79; 1 1; 1 -0.79; 1 1; 1 -0.79; 1 1; 1 -0.79; 1 1; 1 -0.79; 1 1; 1 -0.79; 1 1; 1 -0.79; 1 1; 1 -0.79; 1 1; 1 -0.79; 1 1; 1 -0.79; 1 1; 1 -0.79; 1 1; 1 -0.79; 1 1" keyTimes="0; 0.039123; 0.072665; 0.089408; 0.12295; 0.156436; 0.201139; 0.234681; 0.268167; 0.296128; 0.329614; 0.368736; 0.40228; 0.435766; 0.469307; 0.50843; 0.541916; 0.558658; 0.592201; 0.614524; 0.648066; 0.68719; 0.720676; 0.743055; 0.776541; 0.810082; 0.843625; 0.860368; 0.893854; 0.910653; 0.944139; 0.960937; 0.994423; 1; 1; 1; 1; 1; 1; 1; 1; 1; 1; 1; 1; 1; 1" keySplines="0 0 1 1; 0 0 1 1; 0 0 1 1; 0 0 1 1; 0 0 1 1; 0 0 1 1; 0 0 1 1; 0 0 1 1; 0 0 1 1; 0 0 1 1; 0 0 1 1; 0 0 1 1; 0 0 1 1; 0 0 1 1; 0 0 1 1; 0 0 1 1; 0 0 1 1; 0 0 1 1; 0 0 1 1; 0 0 1 1; 0 0 1 1; 0 0 1 1; 0 0 1 1; 0 0 1 1; 0 0 1 1; 0 0 1 1; 0 0 1 1; 0 0 1 1; 0 0 1 1; 0 0 1 1; 0 0 1 1; 0 0 1 1; 0 0 1 1; 0 0 1 1; 0 0 1 1; 0 0 1 1; 0 0 1 1; 0 0 1 1; 0 0 1 1; 0 0 1 1; 0 0 1 1; 0 0 1 1; 0 0 1 1; 0 0 1 1; 0 0 1 1; 0 0 1 1" fill="freeze" /><g id="i17" transform="translate(-18.059,-28.371)"><path fill="#000000" d="M25.168,21.732C28.807,17.851,32.608,16.469,22.885,3.663C13.162,-9.143,-11.299,-28.995,-26.68,-30.013C-32.608,-30.405,-26.442,-25.269,-25.02,-24.795C-23.597,-24.321,-7.056,-6.732,-7.944,-1.081C-8.466,2.232,-7.844,10.824,-7.056,13.677C-6.242,16.621,-5.152,19.809,-1.864,23.747C1.537,27.82,5.357,30.144,7.253,30.224C11.563,30.405,22.482,24.597,25.168,21.732Z" /></g></g></g></g></g></g></g></g></svg>